<svg xmlns="http://www.w3.org/2000/svg" enable-background="new 0 0 52 52" viewBox="0 0 52 52" id="speak"><path fill="#DDD" d="M48.4317,28.86177c-0.28262,0.5971-6.70845,10.45878-5.43486,17.21832H26.63893l-1.14141-4.4979
			c-3.57753,0.8837-4.29968,0.84973-6.70448,0.47585c-2.4131-0.37388-2.22618-2.95704-1.99674-4.07869
			c0.22944-1.13015,0.20393-1.35955-0.62029-2.26876c-0.82442-0.90921,1.63992-4.15519-1.06216-4.91996
			c-0.19563-0.05098-1.07917-0.16145-1.24078-0.22939c-0.65431-0.23795-0.86674-1.05371-0.50121-1.63997l3.83229-5.67624
			c0.25475-0.42486,0.29728-0.94319,0.10186-1.39351l-0.3313-0.73081c-0.1531-0.33986-0.1699-0.71374-0.05954-1.06216
			c0,0,0.74268-2.38462,1.06216-3.15246c0.00363-0.00882,0.01328-0.02526,0.01701-0.03402
			c2.60229-6.20514,8.33589-10.95297,15.5756-10.95297c12.07693,0,19.97941,12.32552,14.87025,22.93418
			C48.4402,28.85326,48.4402,28.86177,48.4317,28.86177z"></path><path d="M48.43622,28.8501v0.0102c-0.29034,0.61211-6.69984,10.45117-5.44178,17.22204h-5.55379
			c-0.22422-1.15154-0.76429-6.21627,4.09655-14.95971c0.50953-0.71335,0.95791-1.46744,1.33496-2.26233
			c0.0102,0,0.0102-0.0102,0.0102-0.0102c0.99871-2.07885,1.55918-4.40232,1.55918-6.85822
			c0-7.93841-5.89016-14.53172-13.62475-15.83608C43.91542,3.89704,54.08101,17.21844,48.43622,28.8501z" opacity=".06"></path><path fill="#293C66" d="M43.0162 47.08028c-.00391.00049-.01172.00098-.01953 0H26.63925c-.45801 0-.85645-.31055-.96973-.75391l-.89844-3.5415c-1.66211.38525-2.62598.52197-3.56445.52197-1.94057 0-3.91451-.26756-4.85352-1.61963-.93164-1.33936-.68555-3.17969-.53613-3.90869.16211-.79688.16211-.79688-.38184-1.396-1.3913-1.53352 1.25043-4.33734-.96777-4.68994-.56152-.08887-.79199-.12988-.98047-.20898-1.17279-.42273-1.67534-1.9483-.96387-3.09131l3.85156-5.70703c.18145-.31045-.1663-.74782-.31055-1.15186-.25195-.55859-.28809-1.18945-.10156-1.77686.13209-.42709.92995-2.95409 1.14551-3.34717 2.95508-7.0581 9.27734-11.49023 16.46191-11.49023 12.86591 0 21.17598 13.14305 15.77148 24.36816l-.00098-.00049c-.31827.65329-6.42789 10.12323-5.39258 16.42725.04395.11328.06836.23682.06836.36621C44.0162 46.63253 43.56894 47.08028 43.0162 47.08028zM27.41757 45.08028h14.44238c-.41066-5.48058 2.8148-11.59214 5.70508-16.71582 4.72058-9.90228-2.64319-21.44531-13.99512-21.44531-6.36426 0-11.97949 3.96191-14.65332 10.33984-.34035.83778-.83586 2.42038-1.0459 3.09668-.02832.0874-.0459.21582.01563.354.07829.30729 1.06362 1.56981.1748 3.0498l-3.86035 5.72119c-.02539.04102-.00293.125.0127.14111.09473.02441.34277.06006.56641.09521 3.99184.63748 2.20544 4.23231 2.2168 5.41064.99512 1.12109 1.05859 1.67773.78027 3.05078-.15723.76758-.18262 1.79102.21777 2.3667.48555.7001 2.84932.76172 3.21191.76172.9248 0 1.94727-.17578 4.05078-.69531.53906-.13086 1.07422.19189 1.20996.72461L27.41757 45.08028zM4.97128 44.6506c-5.31738-6.78906-5.31738-16.27197 0-23.06152.34082-.43506.96973-.51172 1.40332-.17041.43555.34033.51172.96875.1709 1.40381-4.74805 6.06299-4.74805 14.53223 0 20.59473.34082.43506.26465 1.06348-.1709 1.40381C5.93765 45.16449 5.30879 45.08168 4.97128 44.6506z"></path><path fill="#293C66" d="M8.9498,40.58663c-3.08496-4.47217-3.0791-10.4707,0.0127-14.92578
				c0.31445-0.45361,0.93652-0.56738,1.3916-0.25098c0.45313,0.31445,0.56641,0.9375,0.25098,1.3916
				c-2.62012,3.7749-2.62402,8.8584-0.00879,12.64941c0.31348,0.45459,0.19922,1.07764-0.25586,1.39111
				C9.89155,41.15266,9.26667,41.04522,8.9498,40.58663z"></path></svg>